<svg t="1583552709026" class="icon" viewBox="0 0 1024 1024" version="1.1" xmlns="http://www.w3.org/2000/svg" p-id="2489" width="480" height="480"><path d="M511.61088 0C229.05856 0 0 229.04832 0 511.60576c0 282.5472 229.05344 511.60576 511.60576 511.60576 282.56256 0 511.61088-229.05344 511.61088-511.60576C1023.22176 229.04832 794.1632 0 511.61088 0L511.61088 0zM511.61088 985.3184c-261.62176 0-473.70752-212.09088-473.70752-473.71264S249.98912 37.89824 511.61088 37.89824c261.62688 0 473.70752 212.08576 473.70752 473.70752S773.22752 985.3184 511.61088 985.3184L511.61088 985.3184z" p-id="2490"></path><path d="M271.88736 625.30048c25.66144 108.64128 123.24864 189.48096 239.72352 189.48096 116.48 0 214.0672-80.83968 239.72352-189.48096L271.88736 625.30048 271.88736 625.30048z" p-id="2491"></path><path d="M271.2576 375.48544a9.988 12.99 0 1 0 102.27712 0 9.988 12.99 0 1 0-102.27712 0Z" p-id="2492"></path><path d="M649.06752 375.48544a9.987 12.99 0 1 0 102.26688 0 9.987 12.99 0 1 0-102.26688 0Z" p-id="2493"></path></svg>