<svg t="1583552761411" class="icon" viewBox="0 0 1024 1024" version="1.1" xmlns="http://www.w3.org/2000/svg" p-id="3268" width="480" height="480"><path d="M906.4512 735.141333c-12.645333 0-23.7056 6.621867-30.064 16.5376-27.28 38.3936-67.9104 71.0816-122.101333 98.0096-54.897067 27.281067-122.965333 40.930133-204.192 40.930134-75.9776 0-145.226667-13.104-207.696-39.291734C279.893333 825.12 232.149333 784.56 199.1264 729.682133c-33.021867-54.878933-49.5424-120.306133-49.5424-196.301866 0-72.56 16.520533-140.541867 49.5424-203.9616 33.021867-63.419733 79.534933-112.0992 139.5552-146.072534 59.986133-33.9552 126.277333-50.933333 198.820267-50.933333 63.560533 0 121.661867 13.4912 174.2336 40.472533 52.570667 26.981333 92.091733 62.944 118.597333 107.9072 26.523733 44.981333 39.767467 93.36 39.767467 145.121067 0 44.381867-10.32 87.389867-30.925867 129.0944-20.641067 41.704533-48.608 74.955733-83.973333 99.770667-26.664533 18.9152-48.2208 28.3552-64.670934 28.3552-8.981333 0-16.6432-3.0112-23.018666-9.0528-6.357333-6.058667-9.527467-13.28-9.527467-21.6448 0-4.666667 4.6496-28.689067 13.930667-72.1024l63.296-294.839467-0.139734-0.017067c0.581333-2.747733 0.933333-5.565867 0.933334-8.4896 0-22.384-18.1408-40.523733-40.56-40.523733-19.3728 0-35.541333 13.632-39.52 31.824l-0.282667-0.0704-15.815467 72.1024c-17.646933-28.848-38.762667-50.298667-63.261866-64.423467-24.498133-14.107733-50.229333-21.152-77.192534-21.152-35.364267 0-71.8208 12.398933-109.316266 37.195734-37.530667 24.814933-68.932267 61.9584-94.222934 111.413333-25.255467 49.470933-37.9008 98.837333-37.9008 148.149333 0 39.9968 8.154667 76.752 24.427734 110.232534 16.309333 33.4976 37.461333 58.312533 63.490133 74.4448 26.030933 16.132267 52.871467 24.181333 80.4864 24.181333 25.114667 0 50.157867-7.045333 75.096533-21.152 24.973867-14.106667 47.533867-32.792533 67.700267-56.075733 1.848533 18.9152 4.807467 32.264533 8.840533 39.9968 6.199467 12.117333 15.885867 21.397333 29.0592 27.914666 13.173333 6.516267 30.468267 9.773867 51.866667 9.773867 66.978133 0 128.690133-31.313067 185.136-93.9584 63.2608-69.76 94.874667-149.6128 94.874667-239.556267 0-62.944-15.04-121.256533-45.104-174.9024-35.364267-62.328533-83.656533-109.2288-144.928-140.717866-61.236267-31.456-130.2912-47.217067-207.220267-47.217067-99.242667 0-183.655467 22.3488-253.274667 66.9952C218.762667 176.106667 165.029333 240.461867 127.217067 324.504533 96.202667 393.0496 80.704 465.134933 80.704 540.795733c0 67.9104 13.015467 131.172267 39.080533 189.7664 20.7648 46.213333 51.620267 87.054933 92.5504 122.578134 40.930133 35.505067 90.471467 62.082133 148.626134 79.764266 58.136533 17.682133 121.626667 26.522667 190.453333 26.522667 74.744533 0 138.622933-9.8624 191.634133-29.552 53.047467-19.690667 98.784-46.442667 137.248-80.24 21.962667-19.319467 40.244267-38.445867 54.826667-57.361067 0.157867-0.2112 0.1408-0.405333 0.264533-0.616533 4.226133-5.882667 6.779733-13.032533 6.779734-20.817067 0.053333-19.672533-15.956267-35.6992-35.716267-35.6992z m-309.845333-183.373866c-11.182933 31.472-25.518933 57.4496-43.025067 77.914666s-35.9104 35.9104-55.1072 46.3008c-19.2672 10.391467-37.530667 15.5872-54.896 15.5872-26.048 0-49.154133-11.800533-69.319467-35.364266-20.165333-23.5648-30.24-56.586667-30.24-99.066667 0-26.6816 4.949333-55.988267 14.900267-87.917867 9.8976-31.930667 23.089067-59.069867 39.52-81.4016 16.432-22.331733 33.392-38.535467 50.951467-48.609066 17.506133-10.0736 36.192-15.1104 56.040533-15.1104 30.098133 0 55.582933 11.623467 76.5408 34.8704 20.922667 23.248 31.402667 55.989333 31.402667 98.133333-0.018133 31.648-5.6192 63.191467-16.768 94.663467z" p-id="3269" fill="#bfbfbf"></path></svg>