<svg t="1583054674217" class="icon" viewBox="0 0 1024 1024" version="1.1" xmlns="http://www.w3.org/2000/svg" p-id="4618" width="128" height="128"><path d="M937.387 423.85a387.84 387.84 0 0 1-232.875-77.823v352.341c0 179.883-138.581 325.632-309.59 325.632S85.334 878.25 85.334 698.368c0-179.883 138.582-325.632 309.59-325.632 17.066 0 33.706 1.45 49.92 4.267v186.624a131.755 131.755 0 0 0-48.64-9.216c-76.288 0-138.155 65.024-138.155 145.322 0 80.214 61.867 145.323 138.24 145.323 76.203 0 138.07-65.11 138.07-145.323V0h172.714c0 134.485 103.68 243.541 231.595 243.541v180.31h-1.28" p-id="4619" fill="#ffffff"></path></svg>