<svg t="1582995858568" class="icon" viewBox="0 0 1024 1024" version="1.1" xmlns="http://www.w3.org/2000/svg" p-id="3226" width="16" height="16"><path d="M860.864 748.032l-72.362667 0-106.816 155.434667-100.010667-155.434667L178.218667 748.032c-47.125333 0-85.333333-38.208-85.333333-85.333333L92.885333 184.853333c0-47.146667 38.208-85.333333 85.333333-85.333333l682.645333 0c47.168 0 85.354667 38.186667 85.354667 85.333333l0 477.845333C946.218667 709.824 908.010667 748.032 860.864 748.032zM277.226667 355.498667c-43.370667 0-78.528 35.157333-78.528 78.528 0 43.370667 35.157333 78.506667 78.528 78.506667 43.306667 0 78.485333-35.114667 78.485333-78.506667C355.690667 390.677333 320.533333 355.498667 277.226667 355.498667zM516.138667 355.498667c-43.349333 0-78.528 35.157333-78.528 78.528 0 43.370667 35.178667 78.506667 78.528 78.506667 43.370667 0 78.485333-35.114667 78.485333-78.506667C594.624 390.677333 559.509333 355.498667 516.138667 355.498667zM755.093333 355.498667c-43.370667 0-78.549333 35.157333-78.549333 78.528 0 43.370667 35.157333 78.506667 78.549333 78.506667 43.328 0 78.464-35.114667 78.464-78.506667C833.536 390.677333 798.421333 355.498667 755.093333 355.498667z" p-id="3227" fill="#ffffff"></path></svg>